<?xml version="1.0" standalone="no"?>
<!DOCTYPE svg PUBLIC "-//W3C//DTD SVG 20010904//EN"
 "http://www.w3.org/TR/2001/REC-SVG-20010904/DTD/svg10.dtd">
<svg version="1.0" xmlns="http://www.w3.org/2000/svg"
 width="2573.000000pt" height="2156.000000pt" viewBox="0 0 2573.000000 2156.000000"
 preserveAspectRatio="xMidYMid meet">

<g transform="translate(0.000000,2156.000000) scale(0.100000,-0.100000)"
fill="#000000" stroke="none">
<path d="M4116 16165 c-44 -15 -90 -56 -114 -100 -16 -28 -17 -433 -20 -5630
l-2 -5600 25 -52 c17 -36 38 -61 66 -80 l43 -28 8210 -3 c7526 -2 8215 -1
8254 14 43 16 76 51 106 113 15 31 16 460 16 5615 0 3864 -3 5593 -11 5619
-12 44 -59 101 -103 125 -29 16 -537 17 -8231 19 -6947 2 -8206 0 -8239 -12z"/>
<path d="M21748 4563 c7 -3 16 -2 19 1 4 3 -2 6 -13 5 -11 0 -14 -3 -6 -6z"/>
<path d="M20601 3104 c0 -11 3 -14 6 -6 3 7 2 16 -1 19 -3 4 -6 -2 -5 -13z"/>
</g>
</svg>
